<svg xmlns="http://www.w3.org/2000/svg" viewBox="0 0 512 512">
  <defs>
    <linearGradient id="bg" x1="0" y1="0" x2="1" y2="1">
      <stop offset="0%" stop-color="#070725"/>
      <stop offset="100%" stop-color="#0b0a30"/>
    </linearGradient>
    <radialGradient id="glow" cx="0.5" cy="0.42" r="0.55">
      <stop offset="0%" stop-color="#3b6ef5" stop-opacity="0.5"/>
      <stop offset="55%" stop-color="#9b5cf6" stop-opacity="0.28"/>
      <stop offset="100%" stop-color="#d946ef" stop-opacity="0"/>
    </radialGradient>
    <linearGradient id="body" x1="0" y1="0" x2="0" y2="1">
      <stop offset="0%" stop-color="#ffffff"/>
      <stop offset="62%" stop-color="#eceafd"/>
      <stop offset="100%" stop-color="#cfc9f0"/>
    </linearGradient>
    <linearGradient id="gill" x1="0" y1="0" x2="1" y2="1">
      <stop offset="0%" stop-color="#f3eaff"/>
      <stop offset="100%" stop-color="#d3b8f6"/>
    </linearGradient>
  </defs>
  <rect width="512" height="512" rx="116" fill="url(#bg)"/>
  <rect width="512" height="512" rx="116" fill="url(#glow)"/>
  <g transform="translate(76 76) scale(3)">
    <path d="M38 32 Q26 22 18 24" stroke="url(#gill)" stroke-width="6.5" stroke-linecap="round" fill="none"/>
    <path d="M35 41 Q21 36 13 41" stroke="url(#gill)" stroke-width="6.5" stroke-linecap="round" fill="none"/>
    <path d="M37 50 Q26 52 20 58" stroke="url(#gill)" stroke-width="6.5" stroke-linecap="round" fill="none"/>
    <path d="M82 32 Q94 22 102 24" stroke="url(#gill)" stroke-width="6.5" stroke-linecap="round" fill="none"/>
    <path d="M85 41 Q99 36 107 41" stroke="url(#gill)" stroke-width="6.5" stroke-linecap="round" fill="none"/>
    <path d="M83 50 Q94 52 100 58" stroke="url(#gill)" stroke-width="6.5" stroke-linecap="round" fill="none"/>
    <path d="M56 62 C50 80 56 94 72 98 C86 101 96 93 97 84 C97.5 79 93 76 88 78.5 C83 81 81 86 73 85 C64 84 60 74 62 62 Z" fill="url(#body)"/>
    <path d="M60 70 Q68 72 71 68" stroke="#e8e4fb" stroke-width="5" stroke-linecap="round" fill="none"/>
    <path d="M58 81 Q66 84 69 80" stroke="#dcd6f7" stroke-width="5" stroke-linecap="round" fill="none"/>
    <ellipse cx="60" cy="44" rx="27" ry="22.5" fill="url(#body)"/>
    <circle cx="49.5" cy="46.5" r="4" fill="#101022"/>
    <circle cx="70.5" cy="46.5" r="4" fill="#101022"/>
    <circle cx="51" cy="45" r="1.3" fill="#ffffff" opacity="0.9"/>
    <circle cx="72" cy="45" r="1.3" fill="#ffffff" opacity="0.9"/>
    <ellipse cx="44" cy="53" rx="4" ry="2.2" fill="#f0abfc" opacity="0.35"/>
    <ellipse cx="76" cy="53" rx="4" ry="2.2" fill="#f0abfc" opacity="0.35"/>
    <path d="M56 55.5 Q60 58.5 64 55.5" stroke="#9d97c4" stroke-width="1.6" stroke-linecap="round" fill="none" opacity="0.7"/>
  </g>
</svg>
